<?xml version="1.0" encoding="UTF-8" standalone="no"?>
<svg
   viewBox="0 0 30 30"
   width="90"
   height="90"
   version="1.1"
   id="svg1"
   sodipodi:docname="github.svg"
   inkscape:version="1.3.2 (091e20ef0f, 2023-11-25, custom)"
   inkscape:export-filename="../../CoconutPhishers.github.io/res/github_yel.svg"
   inkscape:export-xdpi="96"
   inkscape:export-ydpi="96"
   xmlns:inkscape="http://www.inkscape.org/namespaces/inkscape"
   xmlns:sodipodi="http://sodipodi.sourceforge.net/DTD/sodipodi-0.dtd"
   xmlns="http://www.w3.org/2000/svg"
   xmlns:svg="http://www.w3.org/2000/svg">
  <defs
     id="defs1" />
  <sodipodi:namedview
     id="namedview1"
     pagecolor="#505050"
     bordercolor="#ffffff"
     borderopacity="1"
     inkscape:showpageshadow="0"
     inkscape:pageopacity="0"
     inkscape:pagecheckerboard="1"
     inkscape:deskcolor="#505050"
     inkscape:zoom="9.5888889"
     inkscape:cx="44.947856"
     inkscape:cy="45.104287"
     inkscape:window-width="1880"
     inkscape:window-height="1096"
     inkscape:window-x="20"
     inkscape:window-y="84"
     inkscape:window-maximized="1"
     inkscape:current-layer="svg1" />
  <path
     d="M 15,3 C 8.373,3 3,8.373 3,15 3,20.623 6.872,25.328 12.092,26.63 12.036,26.468 12,26.28 12,26.047 v -2.051 c -0.487,0 -1.303,0 -1.508,0 -0.821,0 -1.551,-0.353 -1.905,-1.009 C 8.194,22.258 8.126,21.143 7.152,20.461 6.863,20.234 7.083,19.975 7.416,20.01 c 0.615,0.174 1.125,0.596 1.605,1.222 0.478,0.627 0.703,0.769 1.596,0.769 0.433,0 1.081,-0.025 1.691,-0.121 0.328,-0.833 0.895,-1.6 1.588,-1.962 C 9.9,19.507 7.993,17.519 7.993,14.82 7.993,13.658 8.488,12.534 9.329,11.587 9.053,10.647 8.706,8.73 9.435,8 11.233,8 12.32,9.166 12.581,9.481 13.477,9.174 14.461,9 15.495,9 16.531,9 17.519,9.174 18.417,9.483 18.675,9.17 19.763,8 21.565,8 c 0.732,0.731 0.381,2.656 0.102,3.594 0.836,0.945 1.328,2.066 1.328,3.226 0,2.697 -1.904,4.684 -5.894,5.097 C 18.199,20.49 19,22.1 19,23.313 v 2.734 c 0,0.104 -0.023,0.179 -0.035,0.268 C 23.641,24.676 27,20.236 27,15 27,8.373 21.627,3 15,3 Z"
     id="path1"
     style="fill:#ffff00;fill-opacity:1" />
</svg>
