<?xml version="1.0" encoding="UTF-8" standalone="no"?>
<!-- Generator: Adobe Illustrator 24.1.2, SVG Export Plug-In . SVG Version: 6.00 Build 0)  -->

<svg
   version="1.1"
   x="0px"
   y="0px"
   viewBox="0 0 2500 2500"
   xml:space="preserve"
   id="svg4"
   sodipodi:docname="mail_circ.svg"
   inkscape:export-filename="mail_circ_yel.svg"
   inkscape:export-xdpi="96"
   inkscape:export-ydpi="96"
   inkscape:version="1.3.2 (091e20ef0f, 2023-11-25, custom)"
   width="2500"
   height="2500"
   xmlns:inkscape="http://www.inkscape.org/namespaces/inkscape"
   xmlns:sodipodi="http://sodipodi.sourceforge.net/DTD/sodipodi-0.dtd"
   xmlns="http://www.w3.org/2000/svg"
   xmlns:svg="http://www.w3.org/2000/svg"><defs
   id="defs4" /><sodipodi:namedview
   id="namedview4"
   pagecolor="#505050"
   bordercolor="#ffffff"
   borderopacity="1"
   inkscape:showpageshadow="0"
   inkscape:pageopacity="0"
   inkscape:pagecheckerboard="1"
   inkscape:deskcolor="#505050"
   inkscape:zoom="8.26"
   inkscape:cx="12.348668"
   inkscape:cy="16.041162"
   inkscape:window-width="1880"
   inkscape:window-height="1096"
   inkscape:window-x="20"
   inkscape:window-y="84"
   inkscape:window-maximized="1"
   inkscape:current-layer="svg4" />
<g
   id="Layer_10"
   style="display:none">
	<g
   style="display:inline;opacity:0.05"
   id="g3">
		<g
   id="g1">
			<circle
   style="fill:#ffffff"
   cx="25"
   cy="25"
   r="21.5"
   id="circle1" />
			<path
   d="M 25,4 C 36.579,4 46,13.421 46,25 46,36.579 36.579,46 25,46 13.421,46 4,36.579 4,25 4,13.421 13.421,4 25,4 M 25,3 C 12.85,3 3,12.85 3,25 3,37.15 12.85,47 25,47 37.15,47 47,37.15 47,25 47,12.85 37.15,3 25,3 Z"
   id="path1" />
		</g>
		<g
   id="g2">
			<rect
   x="5.5"
   y="5.5"
   style="fill:#ffffff"
   width="39"
   height="39"
   id="rect1" />
			<path
   d="M 44,6 V 44 H 6 V 6 H 44 M 45,5 H 5 v 40 h 40 z"
   id="path2" />
		</g>
	</g>
</g>







<g
   id="ios_x5F_filled">
	<path
   style="fill:none;fill-opacity:1;stroke:#ffff00;stroke-width:2;stroke-miterlimit:10;stroke-opacity:1"
   d="M 36,45 H 14 C 9.029,45 5,40.971 5,36 V 14 C 5,9.029 9.029,5 14,5 h 22 c 4.971,0 9,4.029 9,9 v 22 c 0,4.971 -4.029,9 -9,9 z"
   id="path3" />
	<path
   d="M 36,45 H 14 C 9.029,45 5,40.971 5,36 V 14 C 5,9.029 9.029,5 14,5 h 22 c 4.971,0 9,4.029 9,9 v 22 c 0,4.971 -4.029,9 -9,9 z M 11.07,17.49 C 11.02,17.65 11,17.82 11,18 v 14 c 0,0.18 0.02,0.35 0.07,0.51 L 18.59,25 Z m 18.02,9.82 C 27.96,28.44 26.48,29 24.99,29 23.51,29 22.02,28.44 20.89,27.31 L 20,26.41 12.49,33.93 C 12.65,33.98 12.82,34 13,34 h 24 c 0.18,0 0.35,-0.02 0.51,-0.07 l -7.52,-7.52 z m -1.41,-1.42 9.83,-9.82 C 37.35,16.02 37.18,16 37,16 H 13 c -0.18,0 -0.35,0.02 -0.51,0.07 l 9.82,9.82 c 1.48,1.48 3.89,1.48 5.37,0 z M 38.93,17.49 31.4,25 38.93,32.51 C 38.98,32.35 39,32.18 39,32 V 18 c 0,-0.18 -0.02,-0.35 -0.07,-0.51 z"
   id="path4"
   style="fill:#ffff00;fill-opacity:1" />
</g>





</svg>
